<svg xmlns="http://www.w3.org/2000/svg" width="175" height="40" xml:space="preserve"><g fill="#121212"><path d="M16.446 18.723c2.114.902 3.707 2.102 4.778 3.596 1.072 1.492 1.608 3.256 1.608 5.297 0 2.986-.95 5.391-2.849 7.219-1.9 1.822-4.415 2.738-7.55 2.738-2.557 0-4.7-.654-6.431-1.965-1.729-1.309-2.896-3.166-3.502-5.576l3.502-1.727c.474 1.965 1.254 3.453 2.34 4.467 1.086 1.012 2.45 1.52 4.09 1.52 1.936 0 3.503-.561 4.701-1.676 1.198-1.117 1.796-2.568 1.796-4.357 0-1.447-.417-2.709-1.253-3.781-.835-1.07-2.095-1.975-3.779-2.715L9.95 20.079c-2.159-.904-3.766-2.064-4.822-3.482-1.057-1.418-1.585-3.117-1.585-5.1 0-2.303.856-4.211 2.572-5.719 1.714-1.508 3.901-2.262 6.563-2.262 1.95 0 3.639.414 5.066 1.242 1.426.827 2.539 2.046 3.336 3.658l-3.192 2.04c-.725-1.255-1.539-2.19-2.44-2.803-.901-.614-1.922-.921-3.06-.921-1.448 0-2.635.444-3.558 1.331-.924.887-1.386 2.017-1.386 3.392 0 1.152.355 2.149 1.063 2.992.711.843 1.811 1.59 3.305 2.238l4.634 2.038zM27.621 36.75V16.463h3.393v3.125c.872-1.299 1.921-2.268 3.148-2.904 1.228-.635 2.646-.953 4.257-.953 2.396 0 4.266.635 5.61 1.906 1.346 1.271 2.018 3.039 2.018 5.301V36.75H42.5V24.799c0-2.055-.432-3.582-1.296-4.58-.865-.996-2.199-1.496-4.002-1.496-1.036 0-1.978.189-2.828.566a5.637 5.637 0 0 0-2.117 1.605 4.971 4.971 0 0 0-.92 1.82c-.186.68-.278 1.861-.278 3.547V36.75h-3.438zM70.127 27.125H54.051v.314c0 2.172.621 3.928 1.863 5.266 1.242 1.336 2.86 2.006 4.855 2.006 1.36 0 2.587-.367 3.681-1.1 1.094-.73 2.062-1.836 2.905-3.311l2.639 1.771c-1.019 1.834-2.32 3.217-3.902 4.145-1.583.932-3.416 1.398-5.499 1.398-3.09 0-5.587-1.02-7.495-3.059-1.907-2.041-2.86-4.717-2.86-8.029 0-3.178.946-5.779 2.837-7.805 1.892-2.021 4.324-3.036 7.296-3.036 3 0 5.375.962 7.128 2.882 1.751 1.922 2.627 4.547 2.627 7.873v.685zm-3.726-2.812c-.117-1.789-.713-3.168-1.785-4.137-1.071-.967-2.539-1.453-4.401-1.453-1.685 0-3.089.508-4.212 1.52-1.124 1.014-1.774 2.369-1.952 4.07h12.35zM94.25 16.463V36.75h-3.369v-3.682c-.813 1.48-1.852 2.605-3.116 3.383-1.265.777-2.68 1.164-4.246 1.164-2.913 0-5.259-1-7.04-3.006-1.782-2-2.672-4.65-2.672-7.947 0-3.34.866-5.996 2.595-7.971 1.729-1.973 4.042-2.961 6.94-2.961 1.7 0 3.174.383 4.424 1.143 1.249.762 2.257 1.895 3.026 3.402v-3.813h3.458zm-3.369 10.332c0-2.291-.625-4.135-1.874-5.531-1.25-1.398-2.879-2.096-4.89-2.096-2.083 0-3.71.643-4.876 1.93-1.168 1.285-1.753 3.082-1.753 5.387 0 2.455.587 4.346 1.763 5.674 1.174 1.332 2.841 1.996 5 1.996 2.069 0 3.691-.645 4.867-1.938 1.174-1.295 1.763-3.1 1.763-5.422zM100.327 36.75V2.384h3.481v23.28l9.778-9.201h4.634l-10.133 9.289 11.042 10.998h-4.855l-10.465-10.709V36.75h-3.482zM139.885 27.125h-16.077v.314c0 2.172.621 3.928 1.863 5.266 1.241 1.336 2.859 2.006 4.855 2.006 1.36 0 2.587-.367 3.682-1.1 1.093-.73 2.063-1.836 2.903-3.311l2.64 1.771c-1.02 1.834-2.321 3.217-3.903 4.145-1.581.932-3.415 1.398-5.498 1.398-3.09 0-5.587-1.02-7.495-3.059-1.907-2.041-2.86-4.717-2.86-8.029 0-3.178.946-5.779 2.838-7.805 1.891-2.021 4.323-3.036 7.295-3.036 3 0 5.376.962 7.128 2.882 1.752 1.922 2.629 4.547 2.629 7.873v.685zm-3.727-2.812c-.117-1.789-.713-3.168-1.784-4.137-1.073-.967-2.539-1.453-4.401-1.453-1.686 0-3.09.508-4.213 1.52-1.124 1.014-1.774 2.369-1.952 4.07h12.35zM144.252 36.75V16.463h3.082v4.213c.932-1.758 1.921-3.016 2.971-3.771 1.05-.75 2.329-1.129 3.837-1.129a6.954 6.954 0 0 1 2.349.401l-1.152 3.125a8.718 8.718 0 0 0-1.131-.299 5.408 5.408 0 0 0-1.02-.102c-1.834 0-3.208.662-4.125 1.984-.918 1.324-1.374 3.316-1.374 5.975v9.891h-3.437zM157.092 33.336l2.971-1.994c.562 1.078 1.271 1.887 2.128 2.428.856.537 1.869.809 3.038.809 1.137 0 2.059-.283 2.76-.844.702-.561 1.054-1.299 1.054-2.217 0-.711-.241-1.301-.721-1.773-.481-.473-1.305-.908-2.474-1.309-.117-.043-.311-.109-.575-.199-4.938-1.699-7.406-3.826-7.406-6.387 0-1.803.666-3.273 1.995-4.412 1.331-1.137 3.062-1.707 5.189-1.707 1.758 0 3.267.352 4.523 1.055 1.255.703 2.158 1.695 2.705 2.98l-2.817 1.73c-.413-.932-1.023-1.648-1.828-2.15-.807-.504-1.74-.756-2.806-.756-1.02 0-1.851.287-2.494.854-.643.568-.965 1.297-.965 2.186 0 1.24 1.345 2.283 4.037 3.125.502.164.9.289 1.197.379 2.201.707 3.734 1.52 4.601 2.426.864.91 1.296 2.109 1.296 3.604 0 1.924-.684 3.477-2.05 4.668-1.368 1.191-3.153 1.785-5.354 1.785-1.895 0-3.5-.354-4.822-1.063-1.324-.714-2.385-1.784-3.182-3.218z"/></g></svg>